<svg width="1755" height="262" viewBox="0 0 1755 262" fill="none" xmlns="http://www.w3.org/2000/svg">
<path d="M400 71H608V109H400V71ZM479 106.4H529V199H479V106.4ZM683.608 201.8C669.208 201.8 656.408 199.8 645.208 195.8C634.008 191.667 625.141 185.733 618.608 178C612.208 170.267 609.008 160.933 609.008 150C609.008 138.533 612.208 128.933 618.608 121.2C625.141 113.467 634.008 107.667 645.208 103.8C656.408 99.9333 669.208 98 683.608 98C699.608 98 713.408 100.2 725.008 104.6C736.741 108.867 745.741 114.933 752.008 122.8C758.408 130.533 761.608 139.6 761.608 150C761.608 157.733 759.808 164.8 756.208 171.2C752.608 177.467 747.408 182.933 740.608 187.6C733.808 192.133 725.608 195.667 716.008 198.2C706.408 200.6 695.608 201.8 683.608 201.8ZM701.608 171.4C711.741 171.4 721.008 170.8 729.408 169.6C737.941 168.267 744.741 166.067 749.808 163C755.008 159.933 757.608 155.6 757.608 150C757.608 144.267 755.008 139.867 749.808 136.8C744.741 133.733 737.941 131.6 729.408 130.4C721.008 129.2 711.741 128.6 701.608 128.6C688.008 128.6 677.474 130.4 670.008 134C662.541 137.467 658.808 142.8 658.808 150C658.808 154.667 660.474 158.6 663.808 161.8C667.141 165 672.008 167.4 678.408 169C684.808 170.6 692.541 171.4 701.608 171.4ZM757.608 101H805.608V199H760.408C760.408 199 760.141 197.467 759.608 194.4C759.208 191.333 758.741 186.933 758.208 181.2C757.808 175.467 757.608 168.733 757.608 161V101ZM825.703 61H873.703V199H825.703V61ZM995.303 101L916.103 156L917.103 130L1002.1 199H941.303L874.503 143.2L931.703 101H995.303ZM1064.98 49.6V79.6H1014.18V49.6H1064.98ZM1015.58 101H1063.58V199H1015.58V101ZM1207.03 202C1195.03 202 1184.23 200.8 1174.63 198.4C1165.03 195.867 1156.83 192.333 1150.03 187.8C1143.23 183.133 1138.03 177.6 1134.43 171.2C1130.83 164.8 1129.03 157.733 1129.03 150C1129.03 142.267 1130.83 135.267 1134.43 129C1138.03 122.6 1143.23 117.133 1150.03 112.6C1156.83 107.933 1165.03 104.4 1174.63 102C1184.23 99.4667 1195.03 98.2 1207.03 98.2C1221.43 98.2 1234.23 100.267 1245.43 104.4C1256.76 108.4 1265.63 114.267 1272.03 122C1278.43 129.733 1281.63 139.067 1281.63 150C1281.63 161.467 1278.43 171.067 1272.03 178.8C1265.63 186.533 1256.76 192.333 1245.43 196.2C1234.23 200.067 1221.43 202 1207.03 202ZM1189.03 171.4C1198.1 171.4 1205.83 170.6 1212.23 169C1218.63 167.4 1223.5 165.067 1226.83 162C1230.16 158.8 1231.83 154.8 1231.83 150C1231.83 142.933 1228.1 137.6 1220.63 134C1213.16 130.4 1202.63 128.6 1189.03 128.6C1178.9 128.6 1169.56 129.2 1161.03 130.4C1152.63 131.6 1145.83 133.8 1140.63 137C1135.56 140.067 1133.03 144.4 1133.03 150C1133.03 155.6 1135.56 160 1140.63 163.2C1145.83 166.267 1152.63 168.4 1161.03 169.6C1169.56 170.8 1178.9 171.4 1189.03 171.4ZM1085.03 101H1130.23L1133.03 139V239H1085.03V101ZM1421.73 203C1392.66 203 1369.26 200.467 1351.53 195.4C1333.79 190.2 1320.86 182.6 1312.73 172.6C1304.73 162.467 1300.73 149.933 1300.73 135C1300.73 120.067 1304.73 107.6 1312.73 97.6C1320.86 87.4667 1333.79 79.8667 1351.53 74.8C1369.26 69.6 1392.66 67 1421.73 67C1450.79 67 1474.19 69.6 1491.93 74.8C1509.66 79.8667 1522.53 87.4667 1530.53 97.6C1538.66 107.6 1542.73 120.067 1542.73 135C1542.73 149.933 1538.66 162.467 1530.53 172.6C1522.53 182.6 1509.66 190.2 1491.93 195.4C1474.19 200.467 1450.79 203 1421.73 203ZM1421.73 165C1435.46 165 1447.33 164.2 1457.33 162.6C1467.33 160.867 1475.06 157.867 1480.53 153.6C1485.99 149.2 1488.73 143 1488.73 135C1488.73 127 1485.99 120.867 1480.53 116.6C1475.06 112.2 1467.33 109.2 1457.33 107.6C1447.33 105.867 1435.46 105 1421.73 105C1407.99 105 1395.93 105.867 1385.53 107.6C1375.26 109.2 1367.19 112.2 1361.33 116.6C1355.59 120.867 1352.73 127 1352.73 135C1352.73 143 1355.59 149.2 1361.33 153.6C1367.19 157.867 1375.26 160.867 1385.53 162.6C1395.93 164.2 1407.99 165 1421.73 165ZM1563.74 101H1611.74V199H1563.74V101ZM1683.74 98C1691.61 98 1699.21 98.8667 1706.54 100.6C1713.88 102.2 1720.41 105 1726.14 109C1732.01 113 1736.68 118.467 1740.14 125.4C1743.61 132.333 1745.34 141.067 1745.34 151.6V199H1697.34V157.6C1697.34 147.6 1694.74 140.533 1689.54 136.4C1684.34 132.133 1674.94 130 1661.34 130C1654.14 130 1647.14 130.8 1640.34 132.4C1633.68 134 1627.68 135.933 1622.34 138.2C1617.01 140.333 1612.81 142.467 1609.74 144.6L1609.34 137C1609.88 134.6 1611.68 131.267 1614.74 127C1617.94 122.6 1622.54 118.2 1628.54 113.8C1634.54 109.4 1642.08 105.667 1651.14 102.6C1660.34 99.5333 1671.21 98 1683.74 98Z" fill="#00959E"/>
<path d="M400 71V67H396V71H400ZM608 71H612V67H608V71ZM608 109V113H612V109H608ZM400 109H396V113H400V109ZM479 106.4V102.4H475V106.4H479ZM529 106.4H533V102.4H529V106.4ZM529 199V203H533V199H529ZM479 199H475V203H479V199ZM400 75H608V67H400V75ZM604 71V109H612V71H604ZM608 105H400V113H608V105ZM404 109V71H396V109H404ZM479 110.4H529V102.4H479V110.4ZM525 106.4V199H533V106.4H525ZM529 195H479V203H529V195ZM483 199V106.4H475V199H483ZM645.208 195.8L643.823 199.553L643.843 199.56L643.862 199.567L645.208 195.8ZM618.608 178L615.526 180.55L615.539 180.566L615.552 180.581L618.608 178ZM618.608 121.2L615.552 118.619L615.539 118.634L615.526 118.65L618.608 121.2ZM645.208 103.8L643.902 100.019L645.208 103.8ZM725.008 104.6L723.589 108.34L723.615 108.35L723.641 108.359L725.008 104.6ZM752.008 122.8L748.879 125.292L748.902 125.322L748.926 125.35L752.008 122.8ZM756.208 171.2L759.676 173.192L759.685 173.177L759.694 173.161L756.208 171.2ZM740.608 187.6L742.827 190.928L742.849 190.913L742.871 190.898L740.608 187.6ZM716.008 198.2L716.978 202.081L717.003 202.074L717.028 202.068L716.008 198.2ZM729.408 169.6L729.974 173.56L729.999 173.556L730.025 173.552L729.408 169.6ZM749.808 163L747.776 159.555L747.756 159.566L747.737 159.578L749.808 163ZM749.808 136.8L747.737 140.222L747.756 140.234L747.776 140.245L749.808 136.8ZM729.408 130.4L728.842 134.36L728.851 134.361L729.408 130.4ZM670.008 134L671.692 137.628L671.719 137.616L671.745 137.603L670.008 134ZM663.808 161.8L666.578 158.914L663.808 161.8ZM678.408 169L679.378 165.119L679.378 165.119L678.408 169ZM757.608 101V97H753.608V101H757.608ZM805.608 101H809.608V97H805.608V101ZM805.608 199V203H809.608V199H805.608ZM760.408 199L756.467 199.685L757.043 203H760.408V199ZM759.608 194.4L755.641 194.917L755.652 195.002L755.667 195.085L759.608 194.4ZM758.208 181.2L754.218 181.478L754.221 181.524L754.225 181.57L758.208 181.2ZM683.608 197.8C669.573 197.8 657.241 195.85 646.553 192.033L643.862 199.567C655.574 203.75 668.843 205.8 683.608 205.8V197.8ZM646.593 192.047C635.925 188.11 627.676 182.536 621.663 175.419L615.552 180.581C622.606 188.931 632.091 195.223 643.823 199.553L646.593 192.047ZM621.689 175.45C615.937 168.499 613.008 160.091 613.008 150H605.008C605.008 161.775 608.478 172.034 615.526 180.55L621.689 175.45ZM613.008 150C613.008 139.324 615.967 130.665 621.689 123.75L615.526 118.65C608.449 127.201 605.008 137.742 605.008 150H613.008ZM621.663 123.781C627.658 116.686 635.877 111.253 646.513 107.581L643.902 100.019C632.139 104.08 622.624 110.247 615.552 118.619L621.663 123.781ZM646.513 107.581C657.214 103.887 669.56 102 683.608 102V94C668.856 94 655.602 95.98 643.902 100.019L646.513 107.581ZM683.608 102C699.257 102 712.552 104.154 723.589 108.34L726.426 100.86C714.263 96.2463 699.959 94 683.608 94V102ZM723.641 108.359C734.848 112.434 743.171 118.127 748.879 125.292L755.136 120.308C748.311 111.74 738.634 105.299 726.375 100.841L723.641 108.359ZM748.926 125.35C754.71 132.339 757.608 140.495 757.608 150H765.608C765.608 138.705 762.106 128.728 755.089 120.25L748.926 125.35ZM757.608 150C757.608 157.084 755.967 163.47 752.722 169.239L759.694 173.161C763.649 166.13 765.608 158.382 765.608 150H757.608ZM752.739 169.207C749.478 174.885 744.72 179.927 738.344 184.302L742.871 190.898C750.096 185.94 755.738 180.048 759.676 173.192L752.739 169.207ZM738.389 184.272C732.025 188.514 724.249 191.888 714.987 194.332L717.028 202.068C726.966 199.445 735.591 195.752 742.827 190.928L738.389 184.272ZM715.038 194.319C705.814 196.625 695.347 197.8 683.608 197.8V205.8C695.868 205.8 707.002 204.575 716.978 202.081L715.038 194.319ZM701.608 175.4C711.895 175.4 721.354 174.791 729.974 173.56L728.842 165.64C720.661 166.809 711.587 167.4 701.608 167.4V175.4ZM730.025 173.552C738.857 172.172 746.212 169.852 751.879 166.422L747.737 159.578C743.27 162.281 737.025 164.361 728.79 165.648L730.025 173.552ZM751.84 166.445C758.144 162.728 761.608 157.145 761.608 150H753.608C753.608 154.055 751.872 157.139 747.776 159.555L751.84 166.445ZM761.608 150C761.608 142.761 758.18 137.094 751.84 133.355L747.776 140.245C751.835 142.639 753.608 145.772 753.608 150H761.608ZM751.879 133.378C746.189 129.934 738.81 127.683 729.965 126.439L728.851 134.361C737.072 135.517 743.294 137.533 747.737 140.222L751.879 133.378ZM729.974 126.44C721.354 125.209 711.895 124.6 701.608 124.6V132.6C711.587 132.6 720.661 133.191 728.842 134.36L729.974 126.44ZM701.608 124.6C687.746 124.6 676.519 126.42 668.271 130.397L671.745 137.603C678.43 134.38 688.27 132.6 701.608 132.6V124.6ZM668.323 130.372C664.117 132.325 660.695 134.929 658.331 138.306C655.944 141.716 654.808 145.67 654.808 150H662.808C662.808 147.13 663.538 144.817 664.885 142.894C666.254 140.938 668.432 139.142 671.692 137.628L668.323 130.372ZM654.808 150C654.808 155.744 656.91 160.723 661.038 164.686L666.578 158.914C664.039 156.477 662.808 153.59 662.808 150H654.808ZM661.038 164.686C665.044 168.532 670.634 171.18 677.438 172.881L679.378 165.119C673.382 163.62 669.238 161.468 666.578 158.914L661.038 164.686ZM677.438 172.881C684.248 174.583 692.327 175.4 701.608 175.4V167.4C692.756 167.4 685.367 166.617 679.378 165.119L677.438 172.881ZM757.608 105H805.608V97H757.608V105ZM801.608 101V199H809.608V101H801.608ZM805.608 195H760.408V203H805.608V195ZM760.408 199C764.349 198.315 764.349 198.315 764.349 198.315C764.349 198.315 764.349 198.315 764.349 198.315C764.349 198.315 764.349 198.315 764.349 198.314C764.349 198.314 764.349 198.314 764.349 198.314C764.349 198.314 764.349 198.314 764.349 198.314C764.349 198.314 764.349 198.314 764.349 198.314C764.349 198.314 764.349 198.314 764.349 198.314C764.349 198.314 764.348 198.314 764.348 198.314C764.348 198.313 764.348 198.313 764.348 198.313C764.348 198.313 764.348 198.313 764.348 198.313C764.348 198.313 764.348 198.312 764.348 198.312C764.348 198.312 764.348 198.312 764.348 198.312C764.348 198.312 764.348 198.311 764.348 198.311C764.348 198.311 764.348 198.311 764.348 198.311C764.348 198.311 764.348 198.31 764.348 198.31C764.348 198.308 764.347 198.307 764.347 198.305C764.347 198.304 764.346 198.302 764.346 198.301C764.346 198.301 764.346 198.297 764.346 198.297C764.345 198.292 764.339 198.259 764.336 198.243C764.333 198.225 764.333 198.223 764.329 198.202C764.329 198.2 764.328 198.193 764.327 198.191C764.325 198.181 764.327 198.189 764.325 198.179C764.325 198.176 764.323 198.169 764.323 198.166C764.322 198.163 764.321 198.157 764.321 198.153C764.315 198.121 764.306 198.071 764.299 198.027C764.258 197.796 764.222 197.588 764.149 197.165C764.066 196.688 764.015 196.396 763.899 195.727C763.864 195.528 763.857 195.489 763.821 195.278C763.816 195.25 763.743 194.833 763.736 194.793C763.728 194.749 763.565 193.807 763.549 193.715L755.667 195.085C755.681 195.166 755.678 195.148 755.692 195.228C755.698 195.264 755.698 195.263 755.704 195.298C755.706 195.312 755.708 195.32 755.71 195.333C755.714 195.358 755.712 195.344 755.716 195.368C755.722 195.4 755.759 195.614 755.764 195.642C755.829 196.019 755.791 195.798 755.854 196.163C755.883 196.326 755.87 196.251 755.897 196.411C755.902 196.436 755.914 196.506 755.918 196.531C755.919 196.536 755.92 196.541 755.921 196.546C755.922 196.551 755.923 196.555 755.924 196.56C755.925 196.567 755.927 196.583 755.929 196.59C755.935 196.626 755.933 196.613 755.939 196.649C755.94 196.658 755.957 196.756 755.959 196.764C755.963 196.789 755.975 196.854 755.979 196.878C756.003 197.018 755.993 196.96 756.017 197.098C756.021 197.118 756.087 197.503 756.089 197.511C756.09 197.515 756.09 197.519 756.091 197.523C756.092 197.528 756.092 197.532 756.093 197.536C756.094 197.54 756.095 197.544 756.095 197.548C756.096 197.552 756.097 197.556 756.097 197.56C756.1 197.577 756.099 197.568 756.102 197.585C756.102 197.589 756.103 197.593 756.104 197.597C756.104 197.601 756.105 197.605 756.106 197.609C756.114 197.655 756.115 197.659 756.122 197.704C756.127 197.732 756.134 197.771 756.139 197.798C756.141 197.812 756.144 197.829 756.147 197.843C756.149 197.854 756.149 197.855 756.151 197.866C756.153 197.878 756.152 197.876 756.154 197.888C756.155 197.889 756.158 197.911 756.158 197.911C756.159 197.912 756.162 197.932 756.162 197.933C756.163 197.937 756.164 197.941 756.164 197.944C756.165 197.948 756.165 197.952 756.166 197.955C756.168 197.966 756.168 197.967 756.17 197.977C756.177 198.018 756.178 198.024 756.185 198.064C756.186 198.067 756.186 198.071 756.187 198.074C756.187 198.078 756.188 198.081 756.189 198.085C756.189 198.088 756.19 198.092 756.19 198.096C756.191 198.099 756.192 198.103 756.192 198.106C756.193 198.108 756.199 198.147 756.2 198.148C756.201 198.156 756.213 198.223 756.214 198.23C756.222 198.278 756.261 198.499 756.267 198.535C756.289 198.661 756.294 198.691 756.314 198.805C756.347 198.995 756.323 198.86 756.354 199.038C756.38 199.186 756.4 199.298 756.417 199.398C756.438 199.517 756.442 199.542 756.454 199.613C756.455 199.617 756.455 199.619 756.456 199.622C756.456 199.623 756.457 199.63 756.457 199.63C756.458 199.631 756.458 199.632 756.458 199.632C756.458 199.633 756.458 199.634 756.458 199.634C756.458 199.635 756.458 199.635 756.458 199.636C756.459 199.637 756.459 199.637 756.459 199.638C756.46 199.643 756.459 199.64 756.46 199.645C756.461 199.652 756.463 199.663 756.464 199.667C756.465 199.672 756.465 199.672 756.465 199.675C756.465 199.677 756.466 199.677 756.466 199.678C756.466 199.679 756.466 199.679 756.466 199.68C756.466 199.68 756.466 199.68 756.466 199.681C756.466 199.682 756.466 199.682 756.467 199.683C756.467 199.683 756.467 199.684 756.467 199.684C756.467 199.685 756.467 199.685 756.467 199.685C756.467 199.685 756.467 199.685 756.467 199.685C756.467 199.685 756.467 199.685 756.467 199.685C756.467 199.685 756.467 199.685 760.408 199ZM763.574 193.883C763.184 190.89 762.723 186.548 762.191 180.83L754.225 181.57C754.76 187.319 755.232 191.777 755.641 194.917L763.574 193.883ZM762.198 180.922C761.806 175.306 761.608 168.67 761.608 161H753.608C753.608 168.797 753.809 175.627 754.218 181.478L762.198 180.922ZM761.608 161V101H753.608V161H761.608ZM825.703 61V57H821.703V61H825.703ZM873.703 61H877.703V57H873.703V61ZM873.703 199V203H877.703V199H873.703ZM825.703 199H821.703V203H825.703V199ZM995.303 101L997.585 104.285L1008.08 97H995.303V101ZM916.103 156L912.106 155.846L911.798 163.86L918.385 159.285L916.103 156ZM917.103 130L919.624 126.894L913.414 121.853L913.106 129.846L917.103 130ZM1002.1 199V203H1013.38L1004.62 195.894L1002.1 199ZM941.303 199L938.739 202.07L939.852 203H941.303V199ZM874.503 143.2L872.128 139.981L868.03 143.005L871.939 146.27L874.503 143.2ZM931.703 101V97H930.387L929.328 97.7812L931.703 101ZM825.703 65H873.703V57H825.703V65ZM869.703 61V199H877.703V61H869.703ZM873.703 195H825.703V203H873.703V195ZM829.703 199V61H821.703V199H829.703ZM993.022 97.7145L913.822 152.715L918.385 159.285L997.585 104.285L993.022 97.7145ZM920.1 156.154L921.1 130.154L913.106 129.846L912.106 155.846L920.1 156.154ZM914.582 133.106L999.582 202.106L1004.62 195.894L919.624 126.894L914.582 133.106ZM1002.1 195H941.303V203H1002.1V195ZM943.867 195.93L877.067 140.13L871.939 146.27L938.739 202.07L943.867 195.93ZM876.878 146.419L934.078 104.219L929.328 97.7812L872.128 139.981L876.878 146.419ZM931.703 105H995.303V97H931.703V105ZM1064.98 49.6H1068.98V45.6H1064.98V49.6ZM1064.98 79.6V83.6H1068.98V79.6H1064.98ZM1014.18 79.6H1010.18V83.6H1014.18V79.6ZM1014.18 49.6V45.6H1010.18V49.6H1014.18ZM1015.58 101V97H1011.58V101H1015.58ZM1063.58 101H1067.58V97H1063.58V101ZM1063.58 199V203H1067.58V199H1063.58ZM1015.58 199H1011.58V203H1015.58V199ZM1060.98 49.6V79.6H1068.98V49.6H1060.98ZM1064.98 75.6H1014.18V83.6H1064.98V75.6ZM1018.18 79.6V49.6H1010.18V79.6H1018.18ZM1014.18 53.6H1064.98V45.6H1014.18V53.6ZM1015.58 105H1063.58V97H1015.58V105ZM1059.58 101V199H1067.58V101H1059.58ZM1063.58 195H1015.58V203H1063.58V195ZM1019.58 199V101H1011.58V199H1019.58ZM1174.63 198.4L1173.61 202.268L1173.64 202.274L1173.66 202.281L1174.63 198.4ZM1150.03 187.8L1147.77 191.098L1147.79 191.113L1147.81 191.128L1150.03 187.8ZM1134.43 171.2L1137.92 169.239L1137.92 169.239L1134.43 171.2ZM1134.43 129L1137.9 130.992L1137.91 130.977L1137.92 130.961L1134.43 129ZM1150.03 112.6L1152.25 115.928L1152.27 115.913L1152.29 115.898L1150.03 112.6ZM1174.63 102L1175.6 105.881L1175.63 105.874L1175.65 105.868L1174.63 102ZM1245.43 104.4L1244.05 108.153L1244.07 108.162L1244.1 108.172L1245.43 104.4ZM1272.03 122L1268.95 124.55L1272.03 122ZM1272.03 178.8L1275.11 181.35L1275.11 181.35L1272.03 178.8ZM1245.43 196.2L1244.14 192.414L1244.13 192.417L1244.13 192.419L1245.43 196.2ZM1212.23 169L1213.2 172.881L1213.2 172.881L1212.23 169ZM1226.83 162L1229.54 164.944L1229.57 164.915L1229.6 164.886L1226.83 162ZM1161.03 130.4L1160.47 126.439L1160.47 126.44L1161.03 130.4ZM1140.63 137L1142.7 140.422L1142.72 140.414L1142.73 140.407L1140.63 137ZM1140.63 163.2L1138.5 166.582L1138.55 166.615L1138.6 166.645L1140.63 163.2ZM1161.03 169.6L1160.47 173.56L1160.47 173.561L1161.03 169.6ZM1085.03 101V97H1081.03V101H1085.03ZM1130.23 101L1134.22 100.706L1133.95 97H1130.23V101ZM1133.03 139H1137.03V138.853L1137.02 138.706L1133.03 139ZM1133.03 239V243H1137.03V239H1133.03ZM1085.03 239H1081.03V243H1085.03V239ZM1207.03 198C1195.29 198 1184.83 196.825 1175.6 194.519L1173.66 202.281C1183.64 204.775 1194.77 206 1207.03 206V198ZM1175.65 194.532C1166.39 192.088 1158.61 188.714 1152.25 184.472L1147.81 191.128C1155.05 195.952 1163.67 199.645 1173.61 202.268L1175.65 194.532ZM1152.29 184.502C1145.94 180.139 1141.18 175.043 1137.92 169.239L1130.94 173.161C1134.88 180.157 1140.53 186.128 1147.77 191.098L1152.29 184.502ZM1137.92 169.239C1134.67 163.47 1133.03 157.084 1133.03 150H1125.03C1125.03 158.382 1126.99 166.13 1130.94 173.161L1137.92 169.239ZM1133.03 150C1133.03 142.915 1134.67 136.61 1137.9 130.992L1130.96 127.007C1126.99 133.923 1125.03 141.618 1125.03 150H1133.03ZM1137.92 130.961C1141.18 125.17 1145.91 120.152 1152.25 115.928L1147.81 109.272C1140.55 114.115 1134.89 120.03 1130.94 127.039L1137.92 130.961ZM1152.29 115.898C1158.63 111.549 1166.37 108.187 1175.6 105.881L1173.66 98.1194C1163.69 100.613 1155.03 104.318 1147.77 109.302L1152.29 115.898ZM1175.65 105.868C1184.86 103.438 1195.31 102.2 1207.03 102.2V94.2C1194.76 94.2 1183.6 95.4951 1173.61 98.1324L1175.65 105.868ZM1207.03 102.2C1221.05 102.2 1233.37 104.213 1244.05 108.153L1246.82 100.647C1235.09 96.3206 1221.81 94.2 1207.03 94.2V102.2ZM1244.1 108.172C1254.89 111.979 1263.1 117.476 1268.95 124.55L1275.11 119.45C1268.17 111.057 1258.64 104.821 1246.76 100.628L1244.1 108.172ZM1268.95 124.55C1274.7 131.501 1277.63 139.909 1277.63 150H1285.63C1285.63 138.225 1282.16 127.966 1275.11 119.45L1268.95 124.55ZM1277.63 150C1277.63 160.676 1274.67 169.335 1268.95 176.25L1275.11 181.35C1282.19 172.799 1285.63 162.258 1285.63 150H1277.63ZM1268.95 176.25C1263.1 183.312 1254.91 188.74 1244.14 192.414L1246.72 199.986C1258.62 195.927 1268.16 189.754 1275.11 181.35L1268.95 176.25ZM1244.13 192.419C1233.43 196.113 1221.08 198 1207.03 198V206C1221.78 206 1235.04 204.02 1246.74 199.981L1244.13 192.419ZM1189.03 175.4C1198.31 175.4 1206.39 174.583 1213.2 172.881L1211.26 165.119C1205.27 166.617 1197.88 167.4 1189.03 167.4V175.4ZM1213.2 172.881C1219.97 171.187 1225.54 168.623 1229.54 164.944L1224.12 159.056C1221.46 161.511 1217.29 163.613 1211.26 165.119L1213.2 172.881ZM1229.6 164.886C1233.75 160.899 1235.83 155.842 1235.83 150H1227.83C1227.83 153.758 1226.58 156.701 1224.06 159.114L1229.6 164.886ZM1235.83 150C1235.83 145.72 1234.69 141.803 1232.31 138.406C1229.96 135.045 1226.55 132.415 1222.37 130.397L1218.89 137.603C1222.18 139.185 1224.37 141.021 1225.75 142.994C1227.11 144.93 1227.83 147.214 1227.83 150H1235.83ZM1222.37 130.397C1214.12 126.42 1202.89 124.6 1189.03 124.6V132.6C1202.37 132.6 1212.21 134.38 1218.89 137.603L1222.37 130.397ZM1189.03 124.6C1178.74 124.6 1169.22 125.209 1160.47 126.439L1161.59 134.361C1169.91 133.191 1179.05 132.6 1189.03 132.6V124.6ZM1160.47 126.44C1151.72 127.69 1144.35 130.017 1138.53 133.593L1142.73 140.407C1147.32 137.583 1153.54 135.51 1161.6 134.36L1160.47 126.44ZM1138.56 133.578C1132.38 137.319 1129.03 142.905 1129.03 150H1137.03C1137.03 145.895 1138.75 142.815 1142.7 140.422L1138.56 133.578ZM1129.03 150C1129.03 157.084 1132.37 162.711 1138.5 166.582L1142.77 159.818C1138.76 157.289 1137.03 154.116 1137.03 150H1129.03ZM1138.6 166.645C1144.39 170.062 1151.74 172.314 1160.47 173.56L1161.6 165.64C1153.52 164.486 1147.27 162.471 1142.66 159.755L1138.6 166.645ZM1160.47 173.561C1169.22 174.791 1178.74 175.4 1189.03 175.4V167.4C1179.05 167.4 1169.91 166.809 1161.59 165.639L1160.47 173.561ZM1085.03 105H1130.23V97H1085.03V105ZM1126.24 101.294L1129.04 139.294L1137.02 138.706L1134.22 100.706L1126.24 101.294ZM1129.03 139V239H1137.03V139H1129.03ZM1133.03 235H1085.03V243H1133.03V235ZM1089.03 239V101H1081.03V239H1089.03ZM1351.53 195.4L1350.4 199.238L1350.41 199.242L1350.43 199.246L1351.53 195.4ZM1312.73 172.6L1309.59 175.079L1309.61 175.101L1309.62 175.124L1312.73 172.6ZM1312.73 97.6L1309.61 95.0962L1309.6 95.1012L1312.73 97.6ZM1351.53 74.8L1352.63 78.6461L1352.64 78.6423L1352.65 78.6384L1351.53 74.8ZM1491.93 74.8L1490.8 78.6384L1490.81 78.6423L1490.83 78.6461L1491.93 74.8ZM1530.53 97.6L1527.39 100.079L1527.41 100.101L1527.42 100.124L1530.53 97.6ZM1530.53 172.6L1527.41 170.096L1527.4 170.101L1530.53 172.6ZM1491.93 195.4L1493.03 199.246L1493.04 199.242L1493.05 199.238L1491.93 195.4ZM1457.33 162.6L1457.96 166.55L1457.98 166.546L1458.01 166.541L1457.33 162.6ZM1480.53 153.6L1482.99 156.753L1483.01 156.735L1483.03 156.716L1480.53 153.6ZM1480.53 116.6L1478.02 119.716L1478.04 119.735L1478.07 119.753L1480.53 116.6ZM1457.33 107.6L1456.64 111.541L1456.67 111.546L1456.69 111.55L1457.33 107.6ZM1385.53 107.6L1386.14 111.552L1386.16 111.549L1386.18 111.546L1385.53 107.6ZM1361.33 116.6L1363.71 119.809L1363.72 119.804L1363.73 119.8L1361.33 116.6ZM1361.33 153.6L1358.89 156.773L1358.93 156.805L1358.97 156.835L1361.33 153.6ZM1385.53 162.6L1384.86 166.544L1384.89 166.549L1384.92 166.553L1385.53 162.6ZM1421.73 199C1392.84 199 1369.86 196.477 1352.63 191.554L1350.43 199.246C1368.66 204.456 1392.48 207 1421.73 207V199ZM1352.65 191.562C1335.37 186.495 1323.27 179.23 1315.83 170.076L1309.62 175.124C1318.45 185.97 1332.21 193.905 1350.4 199.238L1352.65 191.562ZM1315.87 170.121C1308.51 160.802 1304.73 149.181 1304.73 135H1296.73C1296.73 150.685 1300.94 164.132 1309.59 175.079L1315.87 170.121ZM1304.73 135C1304.73 120.817 1308.51 109.275 1315.85 100.099L1309.6 95.1012C1300.94 105.925 1296.73 119.316 1296.73 135H1304.73ZM1315.85 100.104C1323.28 90.8358 1335.37 83.5773 1352.63 78.6461L1350.43 70.9539C1332.22 76.156 1318.44 84.0975 1309.61 95.0962L1315.85 100.104ZM1352.65 78.6384C1369.87 73.5886 1392.85 71 1421.73 71V63C1392.47 63 1368.65 65.6114 1350.4 70.9616L1352.65 78.6384ZM1421.73 71C1450.6 71 1473.58 73.5886 1490.8 78.6384L1493.05 70.9616C1474.81 65.6114 1450.98 63 1421.73 63V71ZM1490.83 78.6461C1508.09 83.5775 1520.09 90.8318 1527.39 100.079L1533.67 95.1214C1524.97 84.1015 1511.23 76.1559 1493.03 70.9539L1490.83 78.6461ZM1527.42 100.124C1534.89 109.3 1538.73 120.833 1538.73 135H1546.73C1546.73 119.3 1542.43 105.9 1533.63 95.0761L1527.42 100.124ZM1538.73 135C1538.73 149.166 1534.89 160.777 1527.41 170.096L1533.65 175.104C1542.43 164.156 1546.73 150.701 1546.73 135H1538.73ZM1527.4 170.101C1520.1 179.234 1508.08 186.495 1490.8 191.562L1493.05 199.238C1511.24 193.905 1524.96 185.966 1533.65 175.099L1527.4 170.101ZM1490.83 191.554C1473.6 196.477 1450.61 199 1421.73 199V207C1450.98 207 1474.79 204.456 1493.03 199.246L1490.83 191.554ZM1421.73 169C1435.6 169 1447.69 168.193 1457.96 166.55L1456.69 158.65C1446.96 160.207 1435.32 161 1421.73 161V169ZM1458.01 166.541C1468.38 164.744 1476.82 161.569 1482.99 156.753L1478.07 150.447C1473.3 154.164 1466.27 156.989 1456.64 158.659L1458.01 166.541ZM1483.03 156.716C1489.58 151.444 1492.73 144.02 1492.73 135H1484.73C1484.73 141.98 1482.4 146.956 1478.02 150.484L1483.03 156.716ZM1492.73 135C1492.73 125.982 1489.58 118.594 1482.99 113.447L1478.07 119.753C1482.4 123.139 1484.73 128.018 1484.73 135H1492.73ZM1483.03 113.484C1476.84 108.496 1468.36 105.314 1457.96 103.65L1456.69 111.55C1466.29 113.086 1473.28 115.904 1478.02 119.716L1483.03 113.484ZM1458.01 103.659C1447.72 101.875 1435.61 101 1421.73 101V109C1435.31 109 1446.93 109.858 1456.64 111.541L1458.01 103.659ZM1421.73 101C1407.83 101 1395.54 101.876 1384.87 103.654L1386.18 111.546C1396.31 109.857 1408.15 109 1421.73 109V101ZM1384.91 103.648C1374.25 105.309 1365.49 108.477 1358.93 113.4L1363.73 119.8C1368.9 115.923 1376.27 113.091 1386.14 111.552L1384.91 103.648ZM1358.94 113.391C1352.06 118.51 1348.73 125.909 1348.73 135H1356.73C1356.73 128.091 1359.13 123.223 1363.71 119.809L1358.94 113.391ZM1348.73 135C1348.73 144.091 1352.06 151.528 1358.89 156.773L1363.76 150.427C1359.13 146.872 1356.73 141.909 1356.73 135H1348.73ZM1358.97 156.835C1365.51 161.588 1374.23 164.75 1384.86 166.544L1386.19 158.656C1376.29 156.984 1368.88 154.145 1363.68 150.365L1358.97 156.835ZM1384.92 166.553C1395.57 168.192 1407.85 169 1421.73 169V161C1408.14 161 1396.28 160.208 1386.13 158.647L1384.92 166.553ZM1563.74 101V97H1559.74V101H1563.74ZM1611.74 101H1615.74V97H1611.74V101ZM1611.74 199V203H1615.74V199H1611.74ZM1563.74 199H1559.74V203H1563.74V199ZM1706.54 100.6L1705.62 104.493L1705.66 104.501L1705.69 104.508L1706.54 100.6ZM1726.14 109L1723.85 112.281L1723.87 112.293L1723.89 112.305L1726.14 109ZM1740.14 125.4L1743.72 123.611L1743.72 123.611L1740.14 125.4ZM1745.34 199V203H1749.34V199H1745.34ZM1697.34 199H1693.34V203H1697.34V199ZM1689.54 136.4L1687 139.492L1687.03 139.512L1687.05 139.531L1689.54 136.4ZM1640.34 132.4L1639.43 128.506L1639.42 128.508L1639.41 128.51L1640.34 132.4ZM1622.34 138.2L1623.83 141.914L1623.87 141.898L1623.91 141.881L1622.34 138.2ZM1609.74 144.6L1605.75 144.81L1606.13 151.989L1612.03 147.884L1609.74 144.6ZM1609.34 137L1605.44 136.132L1605.32 136.665L1605.35 137.21L1609.34 137ZM1614.74 127L1611.51 124.647L1611.5 124.656L1611.49 124.665L1614.74 127ZM1628.54 113.8L1626.18 110.574L1626.18 110.574L1628.54 113.8ZM1651.14 102.6L1649.88 98.8053L1649.87 98.808L1649.86 98.8109L1651.14 102.6ZM1563.74 105H1611.74V97H1563.74V105ZM1607.74 101V199H1615.74V101H1607.74ZM1611.74 195H1563.74V203H1611.74V195ZM1567.74 199V101H1559.74V199H1567.74ZM1683.74 102C1691.31 102 1698.6 102.834 1705.62 104.493L1707.46 96.7073C1699.81 94.8996 1691.91 94 1683.74 94V102ZM1705.69 104.508C1712.55 106.004 1718.58 108.604 1723.85 112.281L1728.43 105.719C1722.23 101.396 1715.21 98.396 1707.39 96.6919L1705.69 104.508ZM1723.89 112.305C1729.14 115.886 1733.37 120.808 1736.56 127.189L1743.72 123.611C1739.98 116.125 1734.88 110.114 1728.4 105.695L1723.89 112.305ZM1736.56 127.189C1739.67 133.404 1741.34 141.476 1741.34 151.6H1749.34C1749.34 140.657 1747.55 131.262 1743.72 123.611L1736.56 127.189ZM1741.34 151.6V199H1749.34V151.6H1741.34ZM1745.34 195H1697.34V203H1745.34V195ZM1701.34 199V157.6H1693.34V199H1701.34ZM1701.34 157.6C1701.34 147.012 1698.59 138.482 1692.03 133.269L1687.05 139.531C1690.89 142.585 1693.34 148.188 1693.34 157.6H1701.34ZM1692.08 133.308C1685.73 128.095 1675.07 126 1661.34 126V134C1674.81 134 1682.96 136.171 1687 139.492L1692.08 133.308ZM1661.34 126C1653.84 126 1646.54 126.834 1639.43 128.506L1641.26 136.294C1647.75 134.766 1654.44 134 1661.34 134V126ZM1639.41 128.51C1632.56 130.153 1626.35 132.151 1620.78 134.519L1623.91 141.881C1629 139.715 1634.79 137.847 1641.28 136.29L1639.41 128.51ZM1620.86 134.486C1615.37 136.679 1610.87 138.944 1607.46 141.316L1612.03 147.884C1614.75 145.99 1618.64 143.988 1623.83 141.914L1620.86 134.486ZM1613.74 144.39L1613.34 136.79L1605.35 137.21L1605.75 144.81L1613.74 144.39ZM1613.25 137.868C1613.59 136.319 1614.96 133.549 1617.99 129.335L1611.49 124.665C1608.39 128.985 1606.16 132.881 1605.44 136.132L1613.25 137.868ZM1617.98 129.353C1620.86 125.384 1625.13 121.265 1630.91 117.026L1626.18 110.574C1619.96 115.135 1615.02 119.816 1611.51 124.647L1617.98 129.353ZM1630.91 117.026C1636.5 112.926 1643.64 109.36 1652.42 106.389L1649.86 98.8109C1640.51 101.973 1632.59 105.874 1626.18 110.574L1630.91 117.026ZM1652.41 106.395C1661.1 103.497 1671.52 102 1683.74 102V94C1670.9 94 1659.58 95.5695 1649.88 98.8053L1652.41 106.395Z" fill="white"/>
<path d="M185.93 71.2951L188.46 68.5721L185.93 65.8491L132.893 8.7804C130.085 5.75842 126.21 4 122.102 4C117.995 4 114.12 5.75862 111.312 8.77983L111.311 8.7804L8.32569 119.602L8.3254 119.602C5.52648 122.615 4 126.641 4 130.784C4 134.926 5.52638 138.953 8.3254 141.966L8.3257 141.966L111.311 252.787L114.241 250.064L111.311 252.787C114.12 255.81 117.995 257.568 122.102 257.568C126.21 257.568 130.085 255.81 132.894 252.787L185.93 195.718L188.46 192.995L185.93 190.272L135.978 136.521C135.978 136.521 135.978 136.521 135.978 136.521C135.305 135.797 134.527 135.494 134.33 135.417L134.319 135.412C133.996 135.286 133.686 135.202 133.453 135.145C132.976 135.028 132.425 134.934 131.87 134.854C130.739 134.691 129.219 134.534 127.416 134.38C123.791 134.071 118.767 133.753 112.849 133.427C103.305 132.902 91.3266 132.351 78.9322 131.782C75.9453 131.644 72.9343 131.506 69.9274 131.366C65.783 131.174 61.6464 130.98 57.5897 130.784C61.6464 130.588 65.783 130.394 69.9274 130.202C72.936 130.062 75.9487 129.924 78.9373 129.786C91.3299 129.217 103.307 128.666 112.849 128.141C118.767 127.816 123.791 127.498 127.416 127.188C129.219 127.034 130.739 126.877 131.87 126.714C132.425 126.634 132.976 126.54 133.453 126.424C133.686 126.367 133.996 126.282 134.319 126.156L134.33 126.152C134.527 126.075 135.305 125.771 135.978 125.047L185.93 71.2951Z" fill="#00959E" stroke="white" stroke-width="8"/>
<path d="M233.105 8.77983L233.105 8.78035L180.069 65.8491L177.539 68.5721L180.069 71.2951L230.021 125.047C230.684 125.761 231.447 126.065 231.647 126.144L231.656 126.147C231.978 126.275 232.286 126.361 232.517 126.419C232.991 126.537 233.534 126.632 234.079 126.712C235.189 126.876 236.675 127.033 238.434 127.187C241.972 127.497 246.87 127.815 252.635 128.141C261.927 128.666 273.584 129.216 285.645 129.786C288.562 129.924 291.502 130.062 294.439 130.202C298.476 130.395 302.505 130.589 306.457 130.785C302.505 130.981 298.476 131.175 294.439 131.367C291.5 131.507 288.557 131.646 285.637 131.784C273.58 132.353 261.925 132.903 252.635 133.428C246.87 133.753 241.972 134.071 238.434 134.381C236.675 134.535 235.189 134.693 234.079 134.856C233.535 134.937 232.991 135.031 232.517 135.149C232.286 135.207 231.978 135.293 231.656 135.421L231.647 135.425C231.448 135.504 230.685 135.807 230.022 136.521C230.021 136.521 230.021 136.521 230.021 136.521L180.069 190.272L177.539 192.995L180.069 195.718L233.105 252.79L235.793 250.292L233.105 252.79C235.914 255.813 239.789 257.57 243.896 257.57C248.003 257.57 251.879 255.813 254.688 252.789L357.673 141.968C360.473 138.955 361.999 134.928 361.999 130.785C361.999 126.642 360.473 122.615 357.673 119.602L254.687 8.78039C251.879 5.75843 248.004 4 243.896 4C239.789 4 235.914 5.75862 233.105 8.77983Z" fill="#00959E" stroke="white" stroke-width="8"/>
</svg>
